<svg width="300" height="200" xmlns="http://www.w3.org/2000/svg" style="vector-effect: non-scaling-stroke;" stroke="null">
 <!-- Created with Method Draw - http://github.com/duopixel/Method-Draw/ -->

 <g stroke="null">
  <title stroke="null">background</title>
  <rect stroke="null" fill="#4c4cd3" id="canvas_background" height="202" width="302" y="-1" x="-1"/>
  <g style="vector-effect: non-scaling-stroke;" stroke="null" display="none" overflow="visible" y="0" x="0" height="100%" width="100%" id="canvasGrid">
   <rect fill="url(#gridpattern)" stroke-width="0" y="0" x="0" height="100%" width="100%"/>
  </g>
 </g>
 <g stroke="null">
  <title stroke="null">Layer 1</title>
  <path stroke="#000" id="svg_8" d="m-161.5,166.333333" opacity="0.5" fill-opacity="null" stroke-opacity="null" stroke-width="1.5" fill="none"/>
  <path stroke="#000" id="svg_9" d="m758.5,280.333333" opacity="0.5" fill-opacity="null" stroke-opacity="null" stroke-width="1.5" fill="none"/>
  <path stroke="#000" id="svg_12" d="m73.79517,53.317183l0,0c0,-7.157611 5.92401,-12.960001 13.231646,-12.960001l6.014388,0l0,0l28.869052,0l54.129457,0c3.509259,0 6.874778,1.365422 9.356199,3.795896c2.481405,2.430474 3.875455,5.726902 3.875455,9.164105l0,32.400005l0,0l0,19.439997l0,0c0,7.157615 -5.924006,12.960001 -13.231649,12.960001l-54.129457,0l-37.713854,32.95427l8.844802,-32.95427l-6.014388,0c-7.307636,0 -13.231646,-5.802386 -13.231646,-12.960001l0,0l0,-19.439997l0,0l-0.000004,-32.400005z" fill-opacity="null" stroke-opacity="null" stroke-width="1.5" fill="none"/>
  <path stroke="#000" id="svg_13" d="m232.949927,90.236335l0,0c0,-4.617815 -3.603264,-8.361293 -8.048115,-8.361293l-3.658236,0l0,0l-17.559528,0l-32.924105,0c-2.134498,0 -4.181566,0.880918 -5.690884,2.448966c-1.509308,1.568048 -2.357235,3.694777 -2.357235,5.912328l0,20.903235l0,0l0,12.541937l0,0c0,4.617817 3.603262,8.361293 8.048117,8.361293l32.924105,0l22.939356,21.260826l-5.379828,-21.260826l3.658236,0c4.444851,0 8.048115,-3.743476 8.048115,-8.361293l0,0l0,-12.541937l0,0l0.000002,-20.903235z" fill-opacity="null" stroke-opacity="null" stroke-width="1.5" fill="none"/>
 </g>
</svg>